# xmcd
#
# Track frame offsets:
#   150
#   9678
#   21369
#   31967
#   42813
#   54599
#   66897
#   76488
#   90370
#   101874
#   115772
#   125141
#   139084
#   148652
#   162963
#   172512
#   185379
#   198104
#   210142
#   219803
#   232658
#   245415
#   255731
#   265140
#   282715
#   296313
#   305946
#   316315
#
# Disc length: 4394 seconds
#
# Revision: 0
# Processed by: cddbd v1.5.2PL0 Copyright (c) Steve Scherf et al.
# Submitted via: GXTranscoder 2.0.1939
#
DISCID=8711281c
DTITLE=Latino - la musique sud américaine
DYEAR=1900
DGENRE=Latin
TTITLE0=sabor a mi
TTITLE1=pajaro campana
TTITLE2=quizas, quizas, quizas
TTITLE3=cachita
TTITLE4=me voye pal pueblo
TTITLE5=capullito de aleli
TTITLE6=el cumbanchero
TTITLE7=babalu
TTITLE8=la borrachita
TTITLE9=o tengo una munech
TTITLE10=frenesi
TTITLE11=maria elena
TTITLE12=brazil
TTITLE13=charlie brown
TTITLE14=tico - tico
TTITLE15=la raspa
TTITLE16=corrazon de melon
TTITLE17=mambo N° 5
TTITLE18=perfida
TTITLE19=eso es el amor
TTITLE20=carioca
TTITLE21=cumana
TTITLE22=besame mucho
TTITLE23=pepito
TTITLE24=la violetera
TTITLE25=el beso
TTITLE26=desapinado
TTITLE27=lation bonus
EXTD=
EXTT0=
EXTT1=
EXTT2=
EXTT3=
EXTT4=
EXTT5=
EXTT6=
EXTT7=
EXTT8=
EXTT9=
EXTT10=
EXTT11=
EXTT12=
EXTT13=
EXTT14=
EXTT15=
EXTT16=
EXTT17=
EXTT18=
EXTT19=
EXTT20=
EXTT21=
EXTT22=
EXTT23=
EXTT24=
EXTT25=
EXTT26=
EXTT27=
PLAYORDER=
